# This file uses centimeters as units for non-parametric coordinates.

mtllib heli_rotor_back.mtl
g default
v 0.143548 0.487768 -2.518451
v 0.143892 0.490614 -2.560683
v 0.137227 0.527388 -2.569233
v 0.138247 0.524912 -2.528401
v 0.144630 0.484607 -2.566779
v 0.143547 0.480620 -2.509142
v 0.135017 0.534083 -2.577670
v 0.137006 0.530930 -2.523182
v 0.138907 0.479393 -2.571195
v 0.137057 0.474683 -2.502667
v 0.126959 0.537552 -2.583245
v 0.129821 0.534142 -2.519730
v 0.094855 0.580873 -2.526776
v 0.092481 0.583522 -2.572584
v 0.114911 0.584241 -2.526625
v 0.112579 0.586653 -2.572393
v 0.106189 0.490096 -2.454604
v 0.101040 0.535172 -2.467967
v 0.128449 0.493855 -2.454702
v 0.123296 0.538931 -2.467838
v 0.117707 0.419944 -2.512633
v 0.119357 0.423870 -2.565396
v 0.141656 0.427375 -2.565462
v 0.139971 0.423688 -2.512743
v 0.111466 0.473297 -2.623677
v 0.102238 0.517092 -2.632792
v 0.124543 0.520563 -2.632591
v 0.133768 0.476770 -2.623705
v 0.161991 0.176971 -2.537348
v 0.163125 0.179631 -2.573474
v 0.176718 0.181788 -2.573519
v 0.175568 0.179234 -2.537410
v 0.122770 0.432872 -2.868332
v 0.116533 0.462472 -2.874466
v 0.130130 0.464590 -2.874363
v 0.136367 0.434988 -2.868330
v 0.058956 0.826365 -2.518732
v 0.057368 0.828116 -2.549469
v 0.070664 0.828314 -2.518639
v 0.069094 0.829960 -2.549363
v 0.097951 0.566720 -2.218684
v 0.094459 0.597286 -2.227718
v 0.111521 0.569010 -2.218725
v 0.108027 0.599579 -2.227659
v 0.095774 0.530819 -2.581260
v 0.098469 0.527273 -2.521332
v 0.105176 0.471199 -2.504951
v 0.106817 0.475951 -2.569579
v 0.144767 0.482723 -2.537948
v 0.140500 0.509467 -2.572226
v 0.136690 0.532618 -2.550436
v 0.140957 0.505874 -2.516158
v 0.145307 0.484728 -2.566769
v 0.144227 0.480719 -2.509127
v 0.145434 0.474298 -2.535883
v 0.135694 0.534206 -2.577682
v 0.139748 0.509940 -2.581568
v 0.137686 0.531030 -2.523189
v 0.134666 0.540822 -2.552504
v 0.140352 0.505180 -2.506818
v 0.142599 0.484243 -2.566808
v 0.123195 0.473736 -2.574494
v 0.141506 0.480324 -2.509187
v 0.140893 0.473563 -2.535977
v 0.120806 0.468179 -2.497576
v 0.132988 0.533716 -2.577634
v 0.109597 0.538513 -2.587595
v 0.135222 0.509113 -2.581557
v 0.134965 0.530629 -2.523162
v 0.113162 0.534634 -2.517320
v 0.129915 0.540043 -2.552432
v 0.135797 0.504527 -2.506850
v 0.100671 0.533670 -2.527866
v 0.098102 0.536529 -2.577479
v 0.090322 0.581656 -2.549708
v 0.124489 0.537647 -2.527688
v 0.105275 0.582135 -2.519069
v 0.121961 0.540268 -2.577251
v 0.117091 0.585989 -2.549481
v 0.102138 0.585509 -2.580120
v 0.107189 0.475353 -2.499794
v 0.101728 0.523155 -2.513958
v 0.099905 0.512008 -2.461288
v 0.132262 0.479591 -2.499892
v 0.118178 0.484463 -2.452445
v 0.126799 0.527385 -2.513826
v 0.129582 0.517020 -2.461268
v 0.111310 0.544564 -2.470110
v 0.108656 0.466395 -2.508066
v 0.110396 0.470527 -2.563678
v 0.114818 0.421303 -2.539000
v 0.135511 0.474490 -2.563751
v 0.130784 0.426257 -2.574219
v 0.133736 0.470598 -2.508191
v 0.144527 0.426136 -2.539117
v 0.128561 0.421181 -2.503898
v 0.108727 0.480937 -2.576834
v 0.098922 0.527473 -2.586513
v 0.103134 0.494616 -2.628249
v 0.124047 0.531380 -2.586300
v 0.111852 0.526127 -2.634192
v 0.133849 0.484852 -2.576852
v 0.132873 0.499245 -2.628134
v 0.124155 0.467734 -2.622191
v 0.141954 0.279926 -2.523472
v 0.143513 0.283646 -2.573387
v 0.166466 0.141588 -2.557843
v 0.162997 0.286693 -2.573445
v 0.176019 0.144751 -2.581878
v 0.161401 0.283211 -2.523567
v 0.184054 0.144449 -2.557912
v 0.174501 0.141287 -2.533877
v 0.117439 0.447197 -2.763653
v 0.108789 0.488252 -2.772205
v 0.118906 0.440182 -2.907625
v 0.128273 0.491287 -2.772016
v 0.123575 0.461167 -2.911623
v 0.136922 0.450229 -2.763692
v 0.136510 0.442922 -2.907557
v 0.131841 0.421936 -2.903560
v 0.073541 0.721594 -2.519418
v 0.071330 0.724069 -2.562057
v 0.050576 0.863364 -2.531800
v 0.090466 0.724456 -2.519289
v 0.059156 0.863458 -2.511372
v 0.088296 0.726693 -2.561898
v 0.065643 0.865803 -2.531672
v 0.057063 0.865709 -2.552099
v 0.100688 0.531125 -2.318233
v 0.095850 0.573476 -2.330795
v 0.092455 0.591888 -2.187744
v 0.120134 0.534405 -2.318333
v 0.103555 0.573101 -2.181780
v 0.115292 0.576763 -2.330669
v 0.110023 0.594855 -2.187732
v 0.098923 0.613641 -2.193696
v 0.094721 0.525809 -2.550613
v 0.098792 0.498939 -2.516232
v 0.102589 0.475869 -2.537960
v 0.098308 0.502705 -2.572343
v 0.140728 0.507670 -2.544192
v 0.182858 0.096236 -2.561014
v 0.129325 0.432322 -2.954158
v 0.050510 0.911377 -2.528759
v 0.098988 0.606514 -2.142148
v 0.146113 0.474407 -2.535867
v 0.140424 0.510066 -2.581571
v 0.135344 0.540934 -2.552517
v 0.141033 0.505275 -2.506813
v 0.143398 0.473969 -2.535931
v 0.137720 0.509563 -2.581562
v 0.132630 0.540487 -2.552465
v 0.138309 0.504893 -2.506834
v 0.095413 0.534456 -2.552706
v 0.113005 0.535202 -2.519512
v 0.127198 0.539601 -2.552436
v 0.109607 0.538856 -2.585630
v 0.100280 0.498548 -2.506879
v 0.120636 0.469506 -2.497502
v 0.133709 0.504193 -2.506856
v 0.113353 0.533236 -2.516233
v 0.105343 0.467781 -2.535856
v 0.123246 0.473177 -2.572978
v 0.138807 0.473224 -2.535987
v 0.120903 0.467828 -2.498865
v 0.099637 0.503553 -2.581690
v 0.109850 0.537182 -2.588001
v 0.133135 0.508768 -2.581560
v 0.122922 0.475139 -2.575249
v 0.139489 0.281258 -2.548417
v 0.153518 0.285770 -2.581732
v 0.165443 0.285480 -2.548519
v 0.151415 0.280968 -2.515203
v 0.109866 0.467219 -2.767941
v 0.117089 0.496612 -2.773517
v 0.135845 0.471263 -2.767841
v 0.128622 0.441870 -2.762266
v 0.069611 0.722374 -2.540761
v 0.082368 0.722633 -2.512249
v 0.092205 0.726031 -2.540569
v 0.079448 0.725773 -2.569081
v 0.095029 0.551753 -2.324517
v 0.111218 0.525706 -2.316208
v 0.120954 0.556132 -2.324499
v 0.104765 0.582179 -2.332807
v 0.098080 0.500746 -2.544289
vt 0.625000 0.500000
vt 0.625000 0.500000
vt 0.625000 0.500000
vt 0.625000 0.500000
vt 0.625000 0.500000
vt 0.625000 0.500000
vt 0.625000 0.500000
vt 0.625000 0.500000
vt 0.625000 0.500000
vt 0.625000 0.500000
vt 0.625000 0.500000
vt 0.625000 0.500000
vt 0.625000 0.500000
vt 0.625000 0.500000
vt 0.625000 0.500000
vt 0.625000 0.500000
vt 0.625000 0.500000
vt 0.625000 0.500000
vt 0.625000 0.500000
vt 0.625000 0.500000
vt 0.625000 0.500000
vt 0.625000 0.500000
vt 0.625000 0.500000
vt 0.625000 0.500000
vt 0.625000 0.500000
vt 0.625000 0.500000
vt 0.625000 0.500000
vt 0.625000 0.500000
vt 0.625000 0.500000
vt 0.625000 0.500000
vt 0.625000 0.500000
vt 0.625000 0.500000
vt 0.625000 0.500000
vt 0.625000 0.500000
vt 0.625000 0.500000
vt 0.625000 0.500000
vt 0.625000 0.500000
vt 0.625000 0.500000
vt 0.625000 0.500000
vt 0.625000 0.500000
vt 0.625000 0.500000
vt 0.625000 0.500000
vt 0.625000 0.500000
vt 0.625000 0.500000
vt 0.625000 0.500000
vt 0.625000 0.500000
vt 0.625000 0.500000
vt 0.625000 0.500000
vt 0.625000 0.500000
vt 0.625000 0.500000
vt 0.625000 0.500000
vt 0.625000 0.500000
vt 0.625000 0.500000
vt 0.625000 0.500000
vt 0.625000 0.500000
vt 0.625000 0.500000
vt 0.625000 0.500000
vt 0.625000 0.500000
vt 0.625000 0.500000
vt 0.625000 0.500000
vt 0.625000 0.500000
vt 0.625000 0.500000
vt 0.625000 0.500000
vt 0.625000 0.500000
vt 0.625000 0.500000
vt 0.625000 0.500000
vt 0.625000 0.500000
vt 0.625000 0.500000
vt 0.625000 0.500000
vt 0.625000 0.500000
vt 0.625000 0.500000
vt 0.625000 0.500000
vt 0.625000 0.500000
vt 0.625000 0.500000
vt 0.625000 0.500000
vt 0.625000 0.500000
vt 0.625000 0.500000
vt 0.625000 0.500000
vt 0.625000 0.500000
vt 0.625000 0.500000
vt 0.625000 0.500000
vt 0.625000 0.500000
vt 0.625000 0.500000
vt 0.625000 0.500000
vt 0.625000 0.500000
vt 0.625000 0.500000
vt 0.625000 0.500000
vt 0.625000 0.500000
vt 0.625000 0.500000
vt 0.625000 0.500000
vt 0.625000 0.500000
vt 0.625000 0.500000
vt 0.625000 0.500000
vt 0.625000 0.500000
vt 0.625000 0.500000
vt 0.625000 0.500000
vt 0.625000 0.500000
vt 0.625000 0.500000
vt 0.625000 0.500000
vt 0.625000 0.500000
vt 0.625000 0.500000
vt 0.625000 0.500000
vt 0.625000 0.500000
vt 0.625000 0.500000
vt 0.625000 0.500000
vt 0.625000 0.500000
vt 0.625000 0.500000
vt 0.625000 0.500000
vt 0.625000 0.500000
vt 0.625000 0.500000
vt 0.625000 0.500000
vt 0.625000 0.500000
vt 0.625000 0.500000
vt 0.625000 0.500000
vt 0.625000 0.500000
vt 0.625000 0.500000
vt 0.625000 0.500000
vt 0.625000 0.500000
vt 0.625000 0.500000
vt 0.625000 0.500000
vt 0.625000 0.500000
vt 0.625000 0.500000
vt 0.625000 0.500000
vt 0.625000 0.500000
vt 0.625000 0.500000
vt 0.625000 0.500000
vt 0.625000 0.500000
vt 0.625000 0.500000
vt 0.625000 0.500000
vt 0.625000 0.500000
vt 0.625000 0.500000
vt 0.625000 0.500000
vt 0.625000 0.500000
vt 0.625000 0.500000
vt 0.625000 0.500000
vt 0.625000 0.500000
vt 0.625000 0.500000
vt 0.625000 0.500000
vt 0.625000 0.500000
vt 0.625000 0.500000
vt 0.625000 0.500000
vt 0.625000 0.500000
vt 0.625000 0.500000
vt 0.625000 0.500000
vt 0.625000 0.500000
vt 0.625000 0.500000
vt 0.625000 0.500000
vt 0.625000 0.500000
vt 0.625000 0.500000
vt 0.625000 0.500000
vt 0.625000 0.500000
vt 0.625000 0.500000
vt 0.625000 0.500000
vt 0.625000 0.500000
vt 0.625000 0.500000
vt 0.625000 0.500000
vt 0.625000 0.500000
vt 0.625000 0.500000
vt 0.625000 0.500000
vt 0.625000 0.500000
vt 0.625000 0.500000
vt 0.625000 0.500000
vt 0.625000 0.500000
vt 0.625000 0.500000
vt 0.625000 0.500000
vt 0.625000 0.500000
vt 0.625000 0.500000
vt 0.625000 0.500000
vt 0.625000 0.500000
vt 0.625000 0.500000
vt 0.625000 0.500000
vt 0.625000 0.500000
vt 0.625000 0.500000
vt 0.625000 0.500000
vt 0.625000 0.500000
vt 0.625000 0.500000
vt 0.625000 0.500000
vt 0.625000 0.500000
vt 0.625000 0.500000
vt 0.625000 0.500000
vt 0.625000 0.500000
vt 0.625000 0.500000
vt 0.625000 0.500000
vt 0.625000 0.500000
vt 0.625000 0.500000
vt 0.625000 0.500000
vn 0.986342 0.163728 0.017961
vn 0.983876 0.178069 0.016713
vn 0.984001 0.178136 0.003045
vn 0.987059 0.160342 0.002240
vn 0.984895 0.172773 -0.011505
vn 0.987533 0.156785 -0.014042
vn 0.989779 0.142064 -0.012432
vn 0.989780 0.142592 0.001484
vn 0.988835 0.148181 0.015740
vn -0.960260 -0.274644 -0.049711
vn -0.900832 -0.168656 -0.400071
vn 0.039859 -0.264012 -0.963696
vn 0.159957 -0.984913 -0.066031
vn 0.934902 0.123586 -0.332694
vn 0.998709 0.037896 0.033838
vn 0.916331 0.073280 0.393660
vn 0.066167 -0.386030 0.920110
vn -0.918959 -0.221694 0.326137
vn -0.967087 -0.226801 -0.115342
vn -0.969226 0.212126 -0.124917
vn -0.134315 0.870316 -0.473825
vn 0.034051 -0.194308 -0.980349
vn 0.812120 0.568389 -0.131887
vn 0.975547 0.178528 -0.128207
vn 0.972516 -0.230848 0.030357
vn 0.154445 -0.983287 -0.096405
vn -0.808941 -0.586481 0.040681
vn -0.997300 -0.055804 0.047732
vn -0.906024 -0.130361 0.402650
vn -0.044756 0.229214 0.972347
vn -0.160000 0.985126 0.062659
vn 0.925138 0.172445 0.338203
vn 0.962880 0.267748 -0.034250
vn 0.892672 0.212614 -0.397407
vn -0.048899 0.349890 -0.935514
vn -0.938914 -0.087572 -0.332824
vn -0.991116 -0.083437 0.103572
vn -0.861528 -0.485623 0.148121
vn 0.137541 -0.819977 0.555626
vn -0.047371 0.276691 0.959791
vn 0.951710 -0.255852 0.169673
vn 0.979433 0.151660 0.133084
vn 0.856936 0.512499 -0.054822
vn -0.165518 0.986003 0.020036
vn -0.956154 0.281870 -0.079497
vn 0.992421 0.063109 0.105441
vn 0.998433 0.051383 0.022162
vn 0.090581 -0.674255 0.732922
vn 0.160783 -0.984827 -0.065301
vn 0.140293 -0.772116 -0.619802
vn 0.994244 0.094027 -0.051354
vn 0.980316 0.167099 -0.105156
vn 0.035656 -0.208660 -0.977338
vn -0.125537 0.668791 -0.732775
vn 0.961549 0.254979 -0.102022
vn 0.963113 0.268396 -0.019415
vn -0.160747 0.984969 0.063223
vn -0.114668 0.776271 0.619883
vn 0.972456 0.226300 0.055832
vn 0.981367 0.158227 0.109013
vn -0.044540 0.263618 0.963598
vn 0.673352 -0.454878 0.582824
vn 0.587352 -0.808413 -0.038549
vn 0.662783 -0.435856 0.608890
vn 0.671267 -0.740613 -0.029879
vn 0.614709 -0.571433 -0.543689
vn 0.603426 -0.600071 -0.525158
vn 0.495643 -0.082792 -0.864571
vn 0.589690 -0.045134 -0.806368
vn 0.434602 0.679352 -0.591271
vn 0.447905 0.659392 -0.603807
vn 0.280371 0.959127 0.038297
vn 0.351724 0.935576 0.031448
vn 0.349084 0.773398 0.529147
vn 0.338893 0.764967 0.547702
vn 0.424704 0.290087 0.857599
vn 0.524962 0.287291 0.801173
vn -0.999366 -0.026101 0.024211
vn -0.981947 0.083318 0.169819
vn -0.905218 -0.027299 0.424070
vn -0.997304 -0.058052 0.044884
vn -0.891180 -0.147016 0.429167
vn -0.989245 -0.139717 0.043297
vn -0.925784 -0.101279 -0.364235
vn -0.935108 -0.004800 -0.354331
vn -0.990200 -0.001631 -0.139648
vn -0.184178 0.789104 0.585997
vn 0.860813 0.315657 0.399202
vn -0.049421 0.176340 0.983088
vn 0.917622 0.151533 0.367433
vn -0.002986 -0.033637 0.999430
vn 0.832194 0.341916 -0.436516
vn 0.949851 0.311032 -0.032278
vn 0.883299 0.195546 -0.426080
vn 0.981776 0.185703 -0.040373
vn -0.176481 0.705396 -0.686491
vn -0.040237 0.255851 -0.965878
vn -0.003987 0.093100 -0.995649
vn -0.988980 -0.112415 0.096337
vn -0.948916 -0.282558 0.140422
vn -0.852048 -0.487853 0.189774
vn -0.993066 -0.099660 0.062359
vn -0.848508 -0.513500 0.127874
vn -0.993651 -0.112461 0.003164
vn -0.948901 0.295377 -0.111081
vn -0.952465 0.304312 -0.014353
vn 0.040373 -0.666453 0.744454
vn 0.925665 -0.269412 0.265633
vn 0.145008 -0.898874 0.413518
vn 0.946999 -0.284271 0.149606
vn 0.160796 -0.939237 0.303280
vn 0.817031 0.574998 0.042865
vn 0.979860 0.149778 0.132066
vn 0.846534 0.525036 -0.087856
vn 0.991850 0.122976 0.033314
vn -0.176397 0.980377 -0.088008
vn -0.160269 0.952758 -0.258004
vn -0.961895 -0.272082 -0.027021
vn -0.913033 -0.367887 -0.176153
vn -0.882118 -0.229655 -0.411249
vn -0.970880 -0.235385 -0.044564
vn -0.897455 -0.137741 -0.419050
vn -0.983428 -0.175899 -0.043924
vn -0.916330 -0.193068 0.350805
vn -0.903274 -0.260948 0.340592
vn 0.070224 -0.772342 -0.631314
vn 0.925515 0.014617 -0.378430
vn 0.006829 -0.139050 -0.990262
vn 0.922860 0.152862 -0.353502
vn -0.010338 0.040693 -0.999118
vn 0.905350 -0.023970 0.423988
vn 0.998700 0.037247 0.034807
vn 0.903780 0.098791 0.416439
vn 0.989455 0.138787 0.041437
vn 0.032705 -0.219734 0.975011
vn 0.020720 -0.088016 0.995904
vn -0.974897 -0.198396 -0.101065
vn -0.961543 0.217372 -0.167884
vn -0.973673 -0.216383 -0.071691
vn -0.965165 0.240670 -0.102637
vn -0.977910 -0.208678 -0.012044
vn -0.797270 -0.599484 0.070563
vn -0.799948 -0.599602 -0.023702
vn 0.781517 0.579985 -0.229887
vn -0.150572 0.930338 -0.334363
vn 0.798643 0.591651 -0.110082
vn -0.147213 0.964303 -0.220110
vn 0.953403 -0.293050 -0.071728
vn 0.975503 0.179694 -0.126902
vn 0.966595 -0.248823 0.061496
vn 0.979208 0.201271 -0.025320
vn 0.142746 -0.989700 0.010868
vn 0.150919 -0.973069 0.174243
vn -0.901536 -0.144447 -0.407883
vn -0.983038 -0.178063 -0.043932
vn -0.920199 -0.198338 0.337486
vn 0.928475 0.147395 -0.340894
vn -0.006547 0.025311 -0.999658
vn 0.909532 0.095229 0.404577
vn 0.989767 0.136627 0.041154
vn 0.021779 -0.103771 0.994363
vn -0.968416 0.226260 -0.104771
vn -0.977837 -0.208895 -0.014062
vn -0.804612 -0.590355 0.063878
vn 0.806298 0.580756 -0.112275
vn -0.148029 0.961375 -0.232046
vn 0.970172 -0.236267 0.054256
vn 0.979273 0.200702 -0.027269
vn 0.152409 -0.974922 0.162171
vn -0.898423 -0.148094 0.413406
vn -0.988837 -0.142683 0.042938
vn -0.932204 -0.104318 -0.346573
vn 0.924319 0.152883 0.349658
vn -0.002672 -0.026721 0.999639
vn 0.890829 0.194871 -0.410425
vn 0.982331 0.182740 -0.040390
vn -0.006659 0.099502 -0.995015
vn -0.856017 -0.500609 0.128939
vn -0.993691 -0.112035 0.005192
vn -0.952955 0.284940 -0.103374
vn 0.950610 -0.271226 0.150918
vn 0.158810 -0.935481 0.315680
vn 0.853577 0.514875 -0.079430
vn 0.991694 0.123694 0.035252
vn -0.159727 0.956178 -0.245379
vn -0.987522 -0.157466 -0.002306
s 1
g rotor_back chassis Heli
usemtl blinn1SG
f 49/95/1 2/2/2 50/96/3 141/49/4
f 50/96/3 3/3/5 51/97/6 141/49/4
f 51/97/6 4/4/7 52/98/8 141/49/4
f 52/98/8 1/1/9 49/95/1 141/49/4
f 107/99/10 30/6/11 109/100/12 142/50/13
f 109/100/12 31/7/14 111/101/15 142/50/13
f 111/101/15 32/8/16 112/102/17 142/50/13
f 112/102/17 29/5/18 107/99/10 142/50/13
f 115/103/19 34/10/20 117/104/21 143/51/22
f 117/104/21 35/11/23 119/105/24 143/51/22
f 119/105/24 36/12/25 120/106/26 143/51/22
f 120/106/26 33/9/27 115/103/19 143/51/22
f 123/107/28 37/14/29 125/108/30 144/52/31
f 125/108/30 39/15/32 127/109/33 144/52/31
f 127/109/33 40/16/34 128/110/35 144/52/31
f 128/110/35 38/13/36 123/107/28 144/52/31
f 131/111/37 41/18/38 133/112/39 145/53/40
f 133/112/39 43/19/41 135/113/42 145/53/40
f 135/113/42 44/20/43 136/114/44 145/53/40
f 136/114/44 42/17/45 131/111/37 145/53/40
f 49/95/1 1/1/9 54/115/46 146/54/47
f 54/115/46 6/21/48 55/116/49 146/54/47
f 55/116/49 5/22/50 53/117/51 146/54/47
f 53/117/51 2/2/2 49/95/1 146/54/47
f 50/96/3 2/2/2 53/117/51 147/55/52
f 53/117/51 5/22/50 57/118/53 147/55/52
f 57/118/53 7/23/54 56/119/55 147/55/52
f 56/119/55 3/3/5 50/96/3 147/55/52
f 51/97/6 3/3/5 56/119/55 148/56/56
f 56/119/55 7/23/54 59/120/57 148/56/56
f 59/120/57 8/24/58 58/121/59 148/56/56
f 58/121/59 4/4/7 51/97/6 148/56/56
f 52/98/8 4/4/7 58/121/59 149/57/60
f 58/121/59 8/24/58 60/122/61 149/57/60
f 60/122/61 6/21/48 54/115/46 149/57/60
f 54/115/46 1/1/9 52/98/8 149/57/60
f 55/116/49 6/21/48 63/123/62 150/58/63
f 63/123/62 10/25/64 64/124/65 150/58/63
f 64/124/65 9/26/66 61/125/67 150/58/63
f 61/125/67 5/22/50 55/116/49 150/58/63
f 57/118/53 5/22/50 61/125/67 151/59/68
f 61/125/67 9/26/66 68/126/69 151/59/68
f 68/126/69 11/27/70 66/127/71 151/59/68
f 66/127/71 7/23/54 57/118/53 151/59/68
f 59/120/57 7/23/54 66/127/71 152/60/72
f 66/127/71 11/27/70 71/128/73 152/60/72
f 71/128/73 12/28/74 69/129/75 152/60/72
f 69/129/75 8/24/58 59/120/57 152/60/72
f 60/122/61 8/24/58 69/129/75 153/61/76
f 69/129/75 12/28/74 72/130/77 153/61/76
f 72/130/77 10/25/64 63/123/62 153/61/76
f 63/123/62 6/21/48 60/122/61 153/61/76
f 137/131/78 46/30/79 73/132/80 154/62/81
f 73/132/80 13/31/82 75/133/83 154/62/81
f 75/133/83 14/32/84 74/134/85 154/62/81
f 74/134/85 45/29/86 137/131/78 154/62/81
f 70/135/87 12/28/74 76/136/88 155/63/89
f 76/136/88 15/33/90 77/137/91 155/63/89
f 77/137/91 13/31/82 73/132/80 155/63/89
f 73/132/80 46/30/79 70/135/87 155/63/89
f 71/128/73 11/27/70 78/138/92 156/64/93
f 78/138/92 16/34/94 79/139/95 156/64/93
f 79/139/95 15/33/90 76/136/88 156/64/93
f 76/136/88 12/28/74 71/128/73 156/64/93
f 67/140/96 45/29/86 74/134/85 157/65/97
f 74/134/85 14/32/84 80/141/98 157/65/97
f 80/141/98 16/34/94 78/138/92 157/65/97
f 78/138/92 11/27/70 67/140/96 157/65/97
f 138/142/99 47/35/100 81/143/101 158/66/102
f 81/143/101 17/36/103 83/144/104 158/66/102
f 83/144/104 18/37/105 82/145/106 158/66/102
f 82/145/106 46/30/79 138/142/99 158/66/102
f 65/146/107 10/25/64 84/147/108 159/67/109
f 84/147/108 19/38/110 85/148/111 159/67/109
f 85/148/111 17/36/103 81/143/101 159/67/109
f 81/143/101 47/35/100 65/146/107 159/67/109
f 72/130/77 12/28/74 86/149/112 160/68/113
f 86/149/112 20/39/114 87/150/115 160/68/113
f 87/150/115 19/38/110 84/147/108 160/68/113
f 84/147/108 10/25/64 72/130/77 160/68/113
f 70/135/87 46/30/79 82/145/106 161/69/116
f 82/145/106 18/37/105 88/151/117 161/69/116
f 88/151/117 20/39/114 86/149/112 161/69/116
f 86/149/112 12/28/74 70/135/87 161/69/116
f 139/152/118 48/40/119 90/153/120 162/70/121
f 90/153/120 22/41/122 91/154/123 162/70/121
f 91/154/123 21/42/124 89/155/125 162/70/121
f 89/155/125 47/35/100 139/152/118 162/70/121
f 62/156/126 9/26/66 92/157/127 163/71/128
f 92/157/127 23/43/129 93/158/130 163/71/128
f 93/158/130 22/41/122 90/153/120 163/71/128
f 90/153/120 48/40/119 62/156/126 163/71/128
f 64/124/65 10/25/64 94/159/131 164/72/132
f 94/159/131 24/44/133 95/160/134 164/72/132
f 95/160/134 23/43/129 92/157/127 164/72/132
f 92/157/127 9/26/66 64/124/65 164/72/132
f 65/146/107 47/35/100 89/155/125 165/73/135
f 89/155/125 21/42/124 96/161/136 165/73/135
f 96/161/136 24/44/133 94/159/131 165/73/135
f 94/159/131 10/25/64 65/146/107 165/73/135
f 140/162/137 45/29/86 98/163/138 166/74/139
f 98/163/138 26/45/140 99/164/141 166/74/139
f 99/164/141 25/46/142 97/165/143 166/74/139
f 97/165/143 48/40/119 140/162/137 166/74/139
f 67/140/96 11/27/70 100/166/144 167/75/145
f 100/166/144 27/47/146 101/167/147 167/75/145
f 101/167/147 26/45/140 98/163/138 167/75/145
f 98/163/138 45/29/86 67/140/96 167/75/145
f 68/126/69 9/26/66 102/168/148 168/76/149
f 102/168/148 28/48/150 103/169/151 168/76/149
f 103/169/151 27/47/146 100/166/144 168/76/149
f 100/166/144 11/27/70 68/126/69 168/76/149
f 62/156/126 48/40/119 97/165/143 169/77/152
f 97/165/143 25/46/142 104/170/153 169/77/152
f 104/170/153 28/48/150 102/168/148 169/77/152
f 102/168/148 9/26/66 62/156/126 169/77/152
f 91/154/123 22/41/122 106/171/154 170/78/155
f 106/171/154 30/6/11 107/99/10 170/78/155
f 107/99/10 29/5/18 105/172/156 170/78/155
f 105/172/156 21/42/124 91/154/123 170/78/155
f 93/158/130 23/43/129 108/173/157 171/79/158
f 108/173/157 31/7/14 109/100/12 171/79/158
f 109/100/12 30/6/11 106/171/154 171/79/158
f 106/171/154 22/41/122 93/158/130 171/79/158
f 95/160/134 24/44/133 110/174/159 172/80/160
f 110/174/159 32/8/16 111/101/15 172/80/160
f 111/101/15 31/7/14 108/173/157 172/80/160
f 108/173/157 23/43/129 95/160/134 172/80/160
f 96/161/136 21/42/124 105/172/156 173/81/161
f 105/172/156 29/5/18 112/102/17 173/81/161
f 112/102/17 32/8/16 110/174/159 173/81/161
f 110/174/159 24/44/133 96/161/136 173/81/161
f 99/164/141 26/45/140 114/175/162 174/82/163
f 114/175/162 34/10/20 115/103/19 174/82/163
f 115/103/19 33/9/27 113/176/164 174/82/163
f 113/176/164 25/46/142 99/164/141 174/82/163
f 101/167/147 27/47/146 116/177/165 175/83/166
f 116/177/165 35/11/23 117/104/21 175/83/166
f 117/104/21 34/10/20 114/175/162 175/83/166
f 114/175/162 26/45/140 101/167/147 175/83/166
f 103/169/151 28/48/150 118/178/167 176/84/168
f 118/178/167 36/12/25 119/105/24 176/84/168
f 119/105/24 35/11/23 116/177/165 176/84/168
f 116/177/165 27/47/146 103/169/151 176/84/168
f 104/170/153 25/46/142 113/176/164 177/85/169
f 113/176/164 33/9/27 120/106/26 177/85/169
f 120/106/26 36/12/25 118/178/167 177/85/169
f 118/178/167 28/48/150 104/170/153 177/85/169
f 75/133/83 13/31/82 121/179/170 178/86/171
f 121/179/170 37/14/29 123/107/28 178/86/171
f 123/107/28 38/13/36 122/180/172 178/86/171
f 122/180/172 14/32/84 75/133/83 178/86/171
f 77/137/91 15/33/90 124/181/173 179/87/174
f 124/181/173 39/15/32 125/108/30 179/87/174
f 125/108/30 37/14/29 121/179/170 179/87/174
f 121/179/170 13/31/82 77/137/91 179/87/174
f 79/139/95 16/34/94 126/182/175 180/88/176
f 126/182/175 40/16/34 127/109/33 180/88/176
f 127/109/33 39/15/32 124/181/173 180/88/176
f 124/181/173 15/33/90 79/139/95 180/88/176
f 80/141/98 14/32/84 122/180/172 181/89/177
f 122/180/172 38/13/36 128/110/35 181/89/177
f 128/110/35 40/16/34 126/182/175 181/89/177
f 126/182/175 16/34/94 80/141/98 181/89/177
f 83/144/104 17/36/103 129/183/178 182/90/179
f 129/183/178 41/18/38 131/111/37 182/90/179
f 131/111/37 42/17/45 130/184/180 182/90/179
f 130/184/180 18/37/105 83/144/104 182/90/179
f 85/148/111 19/38/110 132/185/181 183/91/182
f 132/185/181 43/19/41 133/112/39 183/91/182
f 133/112/39 41/18/38 129/183/178 183/91/182
f 129/183/178 17/36/103 85/148/111 183/91/182
f 87/150/115 20/39/114 134/186/183 184/92/184
f 134/186/183 44/20/43 135/113/42 184/92/184
f 135/113/42 43/19/41 132/185/181 184/92/184
f 132/185/181 19/38/110 87/150/115 184/92/184
f 88/151/117 18/37/105 130/184/180 185/93/185
f 130/184/180 42/17/45 136/114/44 185/93/185
f 136/114/44 44/20/43 134/186/183 185/93/185
f 134/186/183 20/39/114 88/151/117 185/93/185
f 140/162/137 48/40/119 139/152/118 186/94/186
f 139/152/118 47/35/100 138/142/99 186/94/186
f 138/142/99 46/30/79 137/131/78 186/94/186
f 137/131/78 45/29/86 140/162/137 186/94/186
