# This file uses centimeters as units for non-parametric coordinates.

mtllib lamp_light.mtl
g default
v 0.560430 8.702959 1.023406
v -0.565628 8.702959 1.023406
v -0.002599 8.702959 1.586435
v 0.395522 8.702959 1.421528
v -0.400721 8.702959 1.421528
v -0.002599 8.702959 0.460377
v -0.400721 8.702959 0.625285
v 0.395522 8.702959 0.625285
v 0.718836 9.326950 1.023406
v 0.507532 9.326950 1.533538
v -0.002599 9.326950 1.744841
v -0.512731 9.326950 1.533538
v -0.724034 9.326950 1.023406
v -0.512731 9.326950 0.513275
v -0.002599 9.326950 0.301971
v 0.507532 9.326950 0.513275
v -0.478871 8.403997 1.023406
v -0.469445 8.403997 1.116140
v -0.002599 8.403997 1.499678
v 0.090134 8.403997 1.490252
v -0.002599 8.403997 0.547135
v -0.095333 8.403997 0.556561
v -0.339374 8.403997 0.686631
v -0.398281 8.403997 0.758869
v 0.334176 8.403997 0.686631
v 0.261938 8.403997 0.627724
v 0.612111 9.797978 1.638117
v -0.002599 9.797978 1.892738
v 0.866733 9.797978 1.023406
v -0.617310 9.797978 1.638117
v -0.871931 9.797978 1.023406
v -0.617310 9.797978 0.408696
v -0.002599 9.797978 0.154074
v 0.612111 9.797978 0.408696
v 0.473672 8.403997 1.023406
v 0.464246 8.403997 0.930673
v 0.393083 8.403997 0.758869
v 0.436912 8.403997 0.841355
v -0.398281 8.403997 1.287943
v -0.339374 8.403997 1.360181
v -0.442110 8.403997 1.205458
v 0.261938 8.403997 1.419088
v 0.334176 8.403997 1.360181
v 0.179452 8.403997 1.462917
v 0.393083 8.403997 1.287943
v 0.464246 8.403997 1.116140
v 0.436912 8.403997 1.205458
v -0.267136 8.403997 1.419088
v -0.095333 8.403997 1.490252
v -0.184650 8.403997 1.462917
v -0.267136 8.403997 0.627724
v -0.184650 8.403997 0.583896
v -0.469445 8.403997 0.930673
v -0.442110 8.403997 0.841355
v 0.090134 8.403997 0.556561
v 0.179452 8.403997 0.583896
vt 0.839847 0.875000
vt 0.839847 1.000000
vt 0.820907 0.906250
vt 0.839847 0.500000
vt 0.820907 0.500000
vt 0.820907 0.468750
vt 0.839847 0.250000
vt 0.820907 0.250000
vt 0.820907 0.218750
vt 0.839847 0.000000
vt 0.839847 0.125000
vt 0.820907 0.031250
vt 0.839847 0.375000
vt 0.820907 0.281250
vt 0.839847 0.750000
vt 0.820907 0.750000
vt 0.820907 0.718750
vt 0.839847 0.625000
vt 0.820907 0.625000
vt 0.820907 0.593750
vt 0.820907 0.875000
vt 0.820907 0.843750
vt 0.881797 0.125000
vt 0.881797 0.250000
vt 0.860822 0.125000
vt 0.860822 0.000000
vt 0.881797 0.000000
vt 0.860822 0.250000
vt 0.860822 0.375000
vt 0.881797 0.375000
vt 0.881797 0.500000
vt 0.860822 0.500000
vt 0.860822 0.625000
vt 0.881797 0.625000
vt 0.881797 0.750000
vt 0.860822 0.750000
vt 0.860822 0.875000
vt 0.881797 0.875000
vt 0.881797 1.000000
vt 0.860822 1.000000
vt 0.820907 1.000000
vt 0.820907 0.968750
vt 0.820907 0.937500
vt 0.820907 0.406250
vt 0.820907 0.375000
vt 0.820907 0.437500
vt 0.820907 0.156250
vt 0.820907 0.125000
vt 0.820907 0.187500
vt 0.820907 0.093750
vt 0.820907 0.000000
vt 0.820907 0.062500
vt 0.820907 0.343750
vt 0.820907 0.312500
vt 0.820907 0.656250
vt 0.820907 0.687500
vt 0.820907 0.531250
vt 0.820907 0.562500
vt 0.820907 0.781250
vt 0.820907 0.812500
vn 0.700146 -0.233162 -0.674856
vn 0.971630 -0.234320 0.032076
vn 0.884444 -0.184699 -0.428539
vn -0.972119 -0.234438 -0.004862
vn -0.960379 -0.278698 -0.000000
vn -0.928419 -0.184699 0.322373
vn -0.017882 -0.233162 0.972274
vn 0.000000 -0.278698 0.960379
vn 0.322373 -0.184699 0.928419
vn 0.673538 -0.235723 0.700558
vn 0.928419 -0.184699 0.322373
vn -0.700558 -0.235723 0.673538
vn -0.322372 -0.184699 0.928419
vn 0.004862 -0.234438 -0.972119
vn 0.000000 -0.278698 -0.960379
vn -0.322373 -0.184699 -0.928419
vn -0.683954 -0.234438 -0.690830
vn -0.679090 -0.278697 -0.679091
vn -0.884444 -0.184699 -0.428538
vn 0.679090 -0.278697 -0.679091
vn 0.428539 -0.184699 -0.884444
vn 0.661213 -0.299514 0.687814
vn -0.018809 -0.299514 0.953906
vn 0.666004 -0.272448 0.694414
vn 0.961961 -0.272448 0.020090
vn 0.953906 -0.299515 0.018810
vn -0.020090 -0.272448 0.961961
vn -0.694415 -0.272448 0.666003
vn -0.687813 -0.299515 0.661214
vn -0.953906 -0.299515 -0.018810
vn -0.961961 -0.272448 -0.020090
vn -0.666003 -0.272448 -0.694414
vn -0.661213 -0.299515 -0.687814
vn 0.018809 -0.299514 -0.953906
vn 0.020090 -0.272448 -0.961961
vn 0.694415 -0.272448 -0.666003
vn 0.687813 -0.299515 -0.661214
vn 0.960379 -0.278698 0.000000
vn 0.947557 -0.239061 -0.212099
vn 0.902307 -0.120799 -0.413824
vn -0.820002 -0.239062 0.520044
vn -0.679090 -0.278698 0.679091
vn -0.930644 -0.120800 0.345413
vn 0.520043 -0.239061 0.820003
vn 0.679090 -0.278697 0.679091
vn 0.345412 -0.120800 0.930644
vn 0.820002 -0.239062 0.520044
vn 0.930644 -0.120800 0.345411
vn -0.520043 -0.239061 0.820003
vn -0.345413 -0.120800 0.930643
vn -0.520044 -0.239061 -0.820003
vn -0.345415 -0.120800 -0.930643
vn -0.947556 -0.239061 -0.212103
vn -0.902308 -0.120800 -0.413821
vn 0.212101 -0.239061 -0.947556
vn 0.413824 -0.120800 -0.902307
s 1
g lamp_light
usemtl lamp:lambert2SG
f 8/1/1 1/2/2 37/3/3
f 2/4/4 17/5/5 18/6/6
f 3/7/7 19/8/8 20/9/9
f 1/10/2 4/11/10 46/12/11
f 3/7/7 5/13/12 49/14/13
f 6/15/14 21/16/15 22/17/16
f 7/18/17 23/19/18 24/20/19
f 8/1/1 25/21/20 26/22/21
f 27/23/22 28/24/23 10/25/24
f 9/26/25 29/27/26 27/23/22
f 1/10/2 9/26/25 10/25/24
f 4/11/10 10/25/24 11/28/27
f 12/29/28 30/30/29 31/31/30
f 11/28/27 28/24/23 30/30/29
f 3/7/7 11/28/27 12/29/28
f 5/13/12 12/29/28 13/32/31
f 14/33/32 32/34/33 33/35/34
f 13/32/31 31/31/30 32/34/33
f 2/4/4 13/32/31 14/33/32
f 7/18/17 14/33/32 15/36/35
f 16/37/36 34/38/37 29/39/26
f 15/36/35 33/35/34 34/38/37
f 6/15/14 15/36/35 16/37/36
f 8/1/1 16/37/36 9/40/25
f 1/2/2 35/41/38 36/42/39
f 37/3/3 25/21/20 8/1/1
f 38/43/40 37/3/3 1/2/2
f 36/42/39 38/43/40 1/2/2
f 39/44/41 40/45/42 5/13/12
f 18/6/6 5/13/12 2/4/4
f 5/13/12 18/6/6 41/46/43
f 5/13/12 41/46/43 39/44/41
f 42/47/44 43/48/45 4/11/10
f 20/9/9 4/11/10 3/7/7
f 4/11/10 20/9/9 44/49/46
f 4/11/10 44/49/46 42/47/44
f 4/11/10 43/48/45 45/50/47
f 46/12/11 35/51/38 1/10/2
f 47/52/48 46/12/11 4/11/10
f 45/50/47 47/52/48 4/11/10
f 5/13/12 40/45/42 48/53/49
f 49/14/13 19/8/8 3/7/7
f 50/54/50 49/14/13 5/13/12
f 48/53/49 50/54/50 5/13/12
f 51/55/51 23/19/18 7/18/17
f 22/17/16 7/18/17 6/15/14
f 7/18/17 22/17/16 52/56/52
f 7/18/17 52/56/52 51/55/51
f 53/57/53 17/5/5 2/4/4
f 24/20/19 2/4/4 7/18/17
f 2/4/4 24/20/19 54/58/54
f 2/4/4 54/58/54 53/57/53
f 55/59/55 21/16/15 6/15/14
f 26/22/21 6/15/14 8/1/1
f 6/15/14 26/22/21 56/60/56
f 6/15/14 56/60/56 55/59/55
f 28/24/23 11/28/27 10/25/24
f 27/23/22 10/25/24 9/26/25
f 10/25/24 4/11/10 1/10/2
f 11/28/27 3/7/7 4/11/10
f 31/31/30 13/32/31 12/29/28
f 30/30/29 12/29/28 11/28/27
f 12/29/28 5/13/12 3/7/7
f 13/32/31 2/4/4 5/13/12
f 33/35/34 15/36/35 14/33/32
f 32/34/33 14/33/32 13/32/31
f 14/33/32 7/18/17 2/4/4
f 15/36/35 6/15/14 7/18/17
f 29/39/26 9/40/25 16/37/36
f 34/38/37 16/37/36 15/36/35
f 16/37/36 8/1/1 6/15/14
f 9/40/25 1/2/2 8/1/1
