# This file uses centimeters as units for non-parametric coordinates.

mtllib lamp_light.mtl
g default
v 25.409389 4.706978 21.966593
v 24.793363 4.706978 21.966593
v 25.101376 4.706978 22.274607
v 25.319174 4.706978 22.184392
v 24.883578 4.706978 22.184392
v 25.101376 4.706978 21.658580
v 24.883578 4.706978 21.748795
v 25.319174 4.706978 21.748795
v 25.496048 5.048342 21.966593
v 25.380451 5.048342 22.245669
v 25.101376 5.048342 22.361265
v 24.822301 5.048342 22.245669
v 24.706704 5.048342 21.966593
v 24.822301 5.048342 21.687518
v 25.101376 5.048342 21.571921
v 25.380451 5.048342 21.687518
v 24.840824 4.543426 21.966593
v 24.845981 4.543426 22.017325
v 25.101376 4.543426 22.227145
v 25.152107 4.543426 22.221988
v 25.101376 4.543426 21.706042
v 25.050645 4.543426 21.711198
v 24.917138 4.543426 21.782356
v 24.884912 4.543426 21.821874
v 25.285614 4.543426 21.782356
v 25.246095 4.543426 21.750129
v 25.437663 5.306025 22.302880
v 25.101376 5.306025 22.442175
v 25.576957 5.306025 21.966593
v 24.765089 5.306025 22.302880
v 24.625795 5.306025 21.966593
v 24.765089 5.306025 21.630307
v 25.101376 5.306025 21.491012
v 25.437663 5.306025 21.630307
v 25.361928 4.543426 21.966593
v 25.356771 4.543426 21.915862
v 25.317840 4.543426 21.821874
v 25.341817 4.543426 21.866999
v 24.884912 4.543426 22.111312
v 24.917138 4.543426 22.150831
v 24.860935 4.543426 22.066187
v 25.246095 4.543426 22.183057
v 25.285614 4.543426 22.150831
v 25.200970 4.543426 22.207034
v 25.317840 4.543426 22.111312
v 25.356771 4.543426 22.017325
v 25.341817 4.543426 22.066187
v 24.956657 4.543426 22.183057
v 25.050645 4.543426 22.221988
v 25.001782 4.543426 22.207034
v 24.956657 4.543426 21.750129
v 25.001782 4.543426 21.726152
v 24.845981 4.543426 21.915862
v 24.860935 4.543426 21.866999
v 25.152107 4.543426 21.711198
v 25.200970 4.543426 21.726152
vt 0.839847 0.875000
vt 0.839847 1.000000
vt 0.820907 0.906250
vt 0.839847 0.500000
vt 0.820907 0.500000
vt 0.820907 0.468750
vt 0.839847 0.250000
vt 0.820907 0.250000
vt 0.820907 0.218750
vt 0.839847 0.000000
vt 0.839847 0.125000
vt 0.820907 0.031250
vt 0.839847 0.375000
vt 0.820907 0.281250
vt 0.839847 0.750000
vt 0.820907 0.750000
vt 0.820907 0.718750
vt 0.839847 0.625000
vt 0.820907 0.625000
vt 0.820907 0.593750
vt 0.820907 0.875000
vt 0.820907 0.843750
vt 0.881797 0.125000
vt 0.881797 0.250000
vt 0.860822 0.125000
vt 0.860822 0.000000
vt 0.881797 0.000000
vt 0.860822 0.250000
vt 0.860822 0.375000
vt 0.881797 0.375000
vt 0.881797 0.500000
vt 0.860822 0.500000
vt 0.860822 0.625000
vt 0.881797 0.625000
vt 0.881797 0.750000
vt 0.860822 0.750000
vt 0.860822 0.875000
vt 0.881797 0.875000
vt 0.881797 1.000000
vt 0.860822 1.000000
vt 0.820907 1.000000
vt 0.820907 0.968750
vt 0.820907 0.937500
vt 0.820907 0.406250
vt 0.820907 0.375000
vt 0.820907 0.437500
vt 0.820907 0.156250
vt 0.820907 0.125000
vt 0.820907 0.187500
vt 0.820907 0.093750
vt 0.820907 0.000000
vt 0.820907 0.062500
vt 0.820907 0.343750
vt 0.820907 0.312500
vt 0.820907 0.656250
vt 0.820907 0.687500
vt 0.820907 0.531250
vt 0.820907 0.562500
vt 0.820907 0.781250
vt 0.820907 0.812500
vn -0.700146 0.233162 0.674856
vn -0.884444 0.184699 0.428538
vn -0.971630 0.234320 -0.032076
vn 0.972119 0.234438 0.004862
vn 0.928419 0.184699 -0.322373
vn 0.960379 0.278698 -0.000000
vn 0.017882 0.233162 -0.972274
vn -0.322372 0.184699 -0.928419
vn -0.000000 0.278698 -0.960379
vn -0.928419 0.184699 -0.322373
vn -0.673538 0.235723 -0.700558
vn 0.322372 0.184699 -0.928420
vn 0.700558 0.235723 -0.673538
vn -0.004862 0.234438 0.972119
vn 0.322372 0.184699 0.928420
vn 0.000000 0.278698 0.960379
vn 0.683954 0.234438 0.690830
vn 0.884444 0.184699 0.428538
vn 0.679090 0.278697 0.679091
vn -0.428540 0.184699 0.884443
vn -0.679090 0.278697 0.679090
vn -0.661213 0.299515 -0.687814
vn -0.666004 0.272448 -0.694414
vn 0.018809 0.299514 -0.953906
vn -0.961961 0.272448 -0.020090
vn -0.953906 0.299515 -0.018810
vn 0.020090 0.272448 -0.961961
vn 0.694415 0.272448 -0.666003
vn 0.953906 0.299515 0.018810
vn 0.687813 0.299514 -0.661214
vn 0.961961 0.272448 0.020090
vn 0.666003 0.272448 0.694414
vn -0.018809 0.299514 0.953906
vn 0.661213 0.299514 0.687815
vn -0.020090 0.272448 0.961961
vn -0.694415 0.272448 0.666003
vn -0.687813 0.299515 0.661214
vn -0.947557 0.239061 0.212100
vn -0.960379 0.278698 0.000000
vn -0.902306 0.120799 0.413825
vn 0.820002 0.239061 -0.520045
vn 0.679090 0.278698 -0.679090
vn 0.930643 0.120800 -0.345414
vn -0.520043 0.239061 -0.820003
vn -0.679090 0.278697 -0.679091
vn -0.345412 0.120800 -0.930644
vn -0.820002 0.239062 -0.520045
vn -0.930644 0.120800 -0.345412
vn 0.520043 0.239061 -0.820003
vn 0.345413 0.120800 -0.930643
vn 0.520044 0.239061 0.820003
vn 0.345413 0.120800 0.930643
vn 0.947556 0.239061 0.212102
vn 0.902308 0.120800 0.413821
vn -0.212101 0.239061 0.947556
vn -0.413826 0.120800 0.902305
s 1
g lamp:lamp_light lamp1
usemtl lamp:lamp:lambert2SG
f 8/1/1 37/3/2 1/2/3
f 2/4/4 18/6/5 17/5/6
f 3/7/7 20/9/8 19/8/9
f 1/10/3 46/12/10 4/11/11
f 3/7/7 49/14/12 5/13/13
f 6/15/14 22/17/15 21/16/16
f 7/18/17 24/20/18 23/19/19
f 8/1/1 26/22/20 25/21/21
f 27/23/22 10/25/23 28/24/24
f 9/26/25 27/23/22 29/27/26
f 1/10/3 10/25/23 9/26/25
f 4/11/11 11/28/27 10/25/23
f 12/29/28 31/31/29 30/30/30
f 11/28/27 30/30/30 28/24/24
f 3/7/7 12/29/28 11/28/27
f 5/13/13 13/32/31 12/29/28
f 14/33/32 33/35/33 32/34/34
f 13/32/31 32/34/34 31/31/29
f 2/4/4 14/33/32 13/32/31
f 7/18/17 15/36/35 14/33/32
f 16/37/36 29/39/26 34/38/37
f 15/36/35 34/38/37 33/35/33
f 6/15/14 16/37/36 15/36/35
f 8/1/1 9/40/25 16/37/36
f 1/2/3 36/42/38 35/41/39
f 37/3/2 8/1/1 25/21/21
f 38/43/40 1/2/3 37/3/2
f 36/42/38 1/2/3 38/43/40
f 39/44/41 5/13/13 40/45/42
f 18/6/5 2/4/4 5/13/13
f 5/13/13 41/46/43 18/6/5
f 5/13/13 39/44/41 41/46/43
f 42/47/44 4/11/11 43/48/45
f 20/9/8 3/7/7 4/11/11
f 4/11/11 44/49/46 20/9/8
f 4/11/11 42/47/44 44/49/46
f 4/11/11 45/50/47 43/48/45
f 46/12/10 1/10/3 35/51/39
f 47/52/48 4/11/11 46/12/10
f 45/50/47 4/11/11 47/52/48
f 5/13/13 48/53/49 40/45/42
f 49/14/12 3/7/7 19/8/9
f 50/54/50 5/13/13 49/14/12
f 48/53/49 5/13/13 50/54/50
f 51/55/51 7/18/17 23/19/19
f 22/17/15 6/15/14 7/18/17
f 7/18/17 52/56/52 22/17/15
f 7/18/17 51/55/51 52/56/52
f 53/57/53 2/4/4 17/5/6
f 24/20/18 7/18/17 2/4/4
f 2/4/4 54/58/54 24/20/18
f 2/4/4 53/57/53 54/58/54
f 55/59/55 6/15/14 21/16/16
f 26/22/20 8/1/1 6/15/14
f 6/15/14 56/60/56 26/22/20
f 6/15/14 55/59/55 56/60/56
f 28/24/24 10/25/23 11/28/27
f 27/23/22 9/26/25 10/25/23
f 10/25/23 1/10/3 4/11/11
f 11/28/27 4/11/11 3/7/7
f 31/31/29 12/29/28 13/32/31
f 30/30/30 11/28/27 12/29/28
f 12/29/28 3/7/7 5/13/13
f 13/32/31 5/13/13 2/4/4
f 33/35/33 14/33/32 15/36/35
f 32/34/34 13/32/31 14/33/32
f 14/33/32 2/4/4 7/18/17
f 15/36/35 7/18/17 6/15/14
f 29/39/26 16/37/36 9/40/25
f 34/38/37 15/36/35 16/37/36
f 16/37/36 6/15/14 8/1/1
f 9/40/25 8/1/1 1/2/3
