# This file uses centimeters as units for non-parametric coordinates.

mtllib lamp_light.mtl
g default
v 25.409389 4.706978 21.966593
v 24.793363 4.706978 21.966593
v 25.101376 4.706978 22.274607
v 25.319174 4.706978 22.184392
v 24.883578 4.706978 22.184392
v 25.101376 4.706978 21.658580
v 24.883578 4.706978 21.748795
v 25.319174 4.706978 21.748795
v 25.496048 5.048342 21.966593
v 25.380451 5.048342 22.245669
v 25.101376 5.048342 22.361265
v 24.822301 5.048342 22.245669
v 24.706704 5.048342 21.966593
v 24.822301 5.048342 21.687518
v 25.101376 5.048342 21.571921
v 25.380451 5.048342 21.687518
v 24.840824 4.543426 21.966593
v 24.845981 4.543426 22.017325
v 25.101376 4.543426 22.227145
v 25.152107 4.543426 22.221988
v 25.101376 4.543426 21.706042
v 25.050645 4.543426 21.711198
v 24.917138 4.543426 21.782356
v 24.884912 4.543426 21.821874
v 25.285614 4.543426 21.782356
v 25.246095 4.543426 21.750129
v 25.437663 5.306025 22.302880
v 25.101376 5.306025 22.442175
v 25.576957 5.306025 21.966593
v 24.765089 5.306025 22.302880
v 24.625795 5.306025 21.966593
v 24.765089 5.306025 21.630307
v 25.101376 5.306025 21.491012
v 25.437663 5.306025 21.630307
v 25.361928 4.543426 21.966593
v 25.356771 4.543426 21.915862
v 25.317840 4.543426 21.821874
v 25.341817 4.543426 21.866999
v 24.884912 4.543426 22.111312
v 24.917138 4.543426 22.150831
v 24.860935 4.543426 22.066187
v 25.246095 4.543426 22.183057
v 25.285614 4.543426 22.150831
v 25.200970 4.543426 22.207034
v 25.317840 4.543426 22.111312
v 25.356771 4.543426 22.017325
v 25.341817 4.543426 22.066187
v 24.956657 4.543426 22.183057
v 25.050645 4.543426 22.221988
v 25.001782 4.543426 22.207034
v 24.956657 4.543426 21.750129
v 25.001782 4.543426 21.726152
v 24.845981 4.543426 21.915862
v 24.860935 4.543426 21.866999
v 25.152107 4.543426 21.711198
v 25.200970 4.543426 21.726152
vt 0.839847 0.875000
vt 0.839847 1.000000
vt 0.820907 0.906250
vt 0.839847 0.500000
vt 0.820907 0.500000
vt 0.820907 0.468750
vt 0.839847 0.250000
vt 0.820907 0.250000
vt 0.820907 0.218750
vt 0.839847 0.000000
vt 0.839847 0.125000
vt 0.820907 0.031250
vt 0.839847 0.375000
vt 0.820907 0.281250
vt 0.839847 0.750000
vt 0.820907 0.750000
vt 0.820907 0.718750
vt 0.839847 0.625000
vt 0.820907 0.625000
vt 0.820907 0.593750
vt 0.820907 0.875000
vt 0.820907 0.843750
vt 0.881797 0.125000
vt 0.881797 0.250000
vt 0.860822 0.125000
vt 0.860822 0.000000
vt 0.881797 0.000000
vt 0.860822 0.250000
vt 0.860822 0.375000
vt 0.881797 0.375000
vt 0.881797 0.500000
vt 0.860822 0.500000
vt 0.860822 0.625000
vt 0.881797 0.625000
vt 0.881797 0.750000
vt 0.860822 0.750000
vt 0.860822 0.875000
vt 0.881797 0.875000
vt 0.881797 1.000000
vt 0.860822 1.000000
vt 0.820907 1.000000
vt 0.820907 0.968750
vt 0.820907 0.937500
vt 0.820907 0.406250
vt 0.820907 0.375000
vt 0.820907 0.437500
vt 0.820907 0.156250
vt 0.820907 0.125000
vt 0.820907 0.187500
vt 0.820907 0.093750
vt 0.820907 0.000000
vt 0.820907 0.062500
vt 0.820907 0.343750
vt 0.820907 0.312500
vt 0.820907 0.656250
vt 0.820907 0.687500
vt 0.820907 0.531250
vt 0.820907 0.562500
vt 0.820907 0.781250
vt 0.820907 0.812500
vn 0.725025 -0.239884 -0.645596
vn 0.973927 -0.222349 -0.045032
vn 0.853690 -0.179201 -0.488980
vn -0.966381 -0.220626 -0.132032
vn -0.960379 -0.278698 0.000000
vn -0.949410 -0.179201 0.257891
vn -0.056165 -0.239884 0.969176
vn 0.000000 -0.278698 0.960379
vn 0.257890 -0.179201 0.949410
vn 0.665128 -0.211013 0.716295
vn 0.949410 -0.179201 0.257889
vn -0.716295 -0.211013 0.665128
vn -0.257890 -0.179201 0.949410
vn 0.132033 -0.220626 -0.966381
vn 0.000000 -0.278698 -0.960379
vn -0.257890 -0.179201 -0.949410
vn -0.589974 -0.220626 -0.776695
vn -0.679090 -0.278697 -0.679091
vn -0.853691 -0.179201 -0.488977
vn 0.679090 -0.278697 -0.679091
vn 0.488980 -0.179201 -0.853690
vn 0.761204 -0.297002 0.576505
vn 0.130602 -0.297001 0.945903
vn 0.680897 -0.272946 0.679617
vn 0.962029 -0.272946 -0.000905
vn 0.945903 -0.297002 -0.130602
vn 0.000905 -0.272946 0.962029
vn -0.679617 -0.272946 0.680897
vn -0.576505 -0.297002 0.761204
vn -0.945903 -0.297002 0.130601
vn -0.962029 -0.272946 0.000905
vn -0.680897 -0.272946 -0.679617
vn -0.761204 -0.297002 -0.576505
vn -0.130602 -0.297002 -0.945903
vn -0.000905 -0.272946 -0.962029
vn 0.679618 -0.272946 -0.680897
vn 0.576505 -0.297002 -0.761204
vn 0.960379 -0.278698 0.000000
vn 0.949977 -0.245905 -0.192548
vn 0.913565 -0.146392 -0.379432
vn -0.807889 -0.245905 0.535581
vn -0.679090 -0.278698 0.679091
vn -0.914286 -0.146393 0.377690
vn 0.535580 -0.245904 0.807889
vn 0.679090 -0.278697 0.679091
vn 0.377689 -0.146393 0.914287
vn 0.807889 -0.245905 0.535581
vn 0.914287 -0.146393 0.377689
vn -0.535580 -0.245904 0.807889
vn -0.377690 -0.146393 0.914286
vn -0.535580 -0.245904 -0.807889
vn -0.377691 -0.146393 -0.914286
vn -0.949976 -0.245905 -0.192551
vn -0.913565 -0.146393 -0.379430
vn 0.192549 -0.245904 -0.949977
vn 0.379433 -0.146392 -0.913564
s 1
g lamp:lamp_light lamp1
usemtl lamp:lamp:lambert2SG
f 8/1/1 1/2/2 37/3/3
f 2/4/4 17/5/5 18/6/6
f 3/7/7 19/8/8 20/9/9
f 1/10/2 4/11/10 46/12/11
f 3/7/7 5/13/12 49/14/13
f 6/15/14 21/16/15 22/17/16
f 7/18/17 23/19/18 24/20/19
f 8/1/1 25/21/20 26/22/21
f 27/23/22 28/24/23 10/25/24
f 9/26/25 29/27/26 27/23/22
f 1/10/2 9/26/25 10/25/24
f 4/11/10 10/25/24 11/28/27
f 12/29/28 30/30/29 31/31/30
f 11/28/27 28/24/23 30/30/29
f 3/7/7 11/28/27 12/29/28
f 5/13/12 12/29/28 13/32/31
f 14/33/32 32/34/33 33/35/34
f 13/32/31 31/31/30 32/34/33
f 2/4/4 13/32/31 14/33/32
f 7/18/17 14/33/32 15/36/35
f 16/37/36 34/38/37 29/39/26
f 15/36/35 33/35/34 34/38/37
f 6/15/14 15/36/35 16/37/36
f 8/1/1 16/37/36 9/40/25
f 1/2/2 35/41/38 36/42/39
f 37/3/3 25/21/20 8/1/1
f 38/43/40 37/3/3 1/2/2
f 36/42/39 38/43/40 1/2/2
f 39/44/41 40/45/42 5/13/12
f 18/6/6 5/13/12 2/4/4
f 5/13/12 18/6/6 41/46/43
f 5/13/12 41/46/43 39/44/41
f 42/47/44 43/48/45 4/11/10
f 20/9/9 4/11/10 3/7/7
f 4/11/10 20/9/9 44/49/46
f 4/11/10 44/49/46 42/47/44
f 4/11/10 43/48/45 45/50/47
f 46/12/11 35/51/38 1/10/2
f 47/52/48 46/12/11 4/11/10
f 45/50/47 47/52/48 4/11/10
f 5/13/12 40/45/42 48/53/49
f 49/14/13 19/8/8 3/7/7
f 50/54/50 49/14/13 5/13/12
f 48/53/49 50/54/50 5/13/12
f 51/55/51 23/19/18 7/18/17
f 22/17/16 7/18/17 6/15/14
f 7/18/17 22/17/16 52/56/52
f 7/18/17 52/56/52 51/55/51
f 53/57/53 17/5/5 2/4/4
f 24/20/19 2/4/4 7/18/17
f 2/4/4 24/20/19 54/58/54
f 2/4/4 54/58/54 53/57/53
f 55/59/55 21/16/15 6/15/14
f 26/22/21 6/15/14 8/1/1
f 6/15/14 26/22/21 56/60/56
f 6/15/14 56/60/56 55/59/55
f 28/24/23 11/28/27 10/25/24
f 27/23/22 10/25/24 9/26/25
f 10/25/24 4/11/10 1/10/2
f 11/28/27 3/7/7 4/11/10
f 31/31/30 13/32/31 12/29/28
f 30/30/29 12/29/28 11/28/27
f 12/29/28 5/13/12 3/7/7
f 13/32/31 2/4/4 5/13/12
f 33/35/34 15/36/35 14/33/32
f 32/34/33 14/33/32 13/32/31
f 14/33/32 7/18/17 2/4/4
f 15/36/35 6/15/14 7/18/17
f 29/39/26 9/40/25 16/37/36
f 34/38/37 16/37/36 15/36/35
f 16/37/36 8/1/1 6/15/14
f 9/40/25 1/2/2 8/1/1
