# This file uses centimeters as units for non-parametric coordinates.

mtllib skybox.mtl
g default
v -125.000000 -125.000000 125.000000
v 125.000000 -125.000000 125.000000
v -125.000000 125.000000 125.000000
v 125.000000 125.000000 125.000000
v -125.000000 125.000000 -125.000000
v 125.000000 125.000000 -125.000000
v -125.000000 -125.000000 -125.000000
v 125.000000 -125.000000 -125.000000
vt 0.250553 0.332178
vt 0.500598 0.666255
vt 0.500553 0.332178
vt 0.000553 0.666256
vt 0.750553 0.666256
vt 0.000553 0.332178
vt 0.750553 0.332178
vt 0.250452 0.666217
vt 0.999250 0.666256
vt 0.999250 0.332178
vt 0.250351 0.999856
vt 0.499333 0.999856
vn 0.000000 0.000000 -1.000000
vn 0.000000 0.000000 -1.000000
vn 0.000000 0.000000 -1.000000
vn 0.000000 0.000000 -1.000000
vn 0.000000 -1.000000 0.000000
vn 0.000000 -1.000000 0.000000
vn 0.000000 -1.000000 0.000000
vn 0.000000 -1.000000 0.000000
vn 0.000000 0.000000 1.000000
vn 0.000000 0.000000 1.000000
vn 0.000000 0.000000 1.000000
vn 0.000000 0.000000 1.000000
vn -1.000000 0.000000 0.000000
vn -1.000000 0.000000 0.000000
vn -1.000000 0.000000 0.000000
vn -1.000000 0.000000 0.000000
vn 1.000000 0.000000 0.000000
vn 1.000000 0.000000 0.000000
vn 1.000000 0.000000 0.000000
vn 1.000000 0.000000 0.000000
s off
g pCube1
usemtl initialShadingGroup
f 1/1/1 3/8/2 4/2/3 2/3/4
f 3/8/5 5/11/6 6/12/7 4/2/8
f 5/9/9 7/10/10 8/7/11 6/5/12
f 2/3/13 4/2/14 6/5/15 8/7/16
f 7/6/17 5/4/18 3/8/19 1/1/20
